{
  "accessors": [
    {
      "bufferView": 2,
      "componentType": 5126,
      "count": 2714,
      "max": [
        53.616397857666016,
        30.529026031494141,
        360.97845458984375
      ],
      "min": [
        -31.000040054321289,
        -57.522300720214844,
        -54.723747253417969
      ],
      "type": "VEC3"
    },
    {
      "bufferView": 2,
      "byteOffset": 32568,
      "componentType": 5126,
      "count": 2714,
      "max": [
        1,
        1,
        1
      ],
      "min": [
        -1,
        -1,
        -1
      ],
      "type": "VEC3"
    },
    {
      "bufferView": 3,
      "componentType": 5126,
      "count": 2714,
      "max": [
        1,
        1,
        0.99917852878570557,
        1
      ],
      "min": [
        -1,
        -1,
        -1,
        -1
      ],
      "type": "VEC4"
    },
    {
      "bufferView": 1,
      "componentType": 5126,
      "count": 2714,
      "max": [
        1.0024685859680176,
        1.0885992050170898
      ],
      "min": [
        -0.2487177848815918,
        -0.26102209091186523
      ],
      "type": "VEC2"
    },
    {
      "bufferView": 0,
      "componentType": 5125,
      "count": 5328,
      "max": [
        2713
      ],
      "min": [
        0
      ],
      "type": "SCALAR"
    },
    {
      "bufferView": 2,
      "byteOffset": 65136,
      "componentType": 5126,
      "count": 2611,
      "max": [
        54.616401672363281,
        39.425743103027344,
        344.39218139648438
      ],
      "min": [
        -39.425731658935547,
        -47.75604248046875,
        -84.222991943359375
      ],
      "type": "VEC3"
    },
    {
      "bufferView": 2,
      "byteOffset": 96468,
      "componentType": 5126,
      "count": 2611,
      "max": [
        1,
        1,
        1
      ],
      "min": [
        -1,
        -1,
        -1
      ],
      "type": "VEC3"
    },
    {
      "bufferView": 3,
      "byteOffset": 43424,
      "componentType": 5126,
      "count": 2611,
      "max": [
        1,
        1,
        1,
        1
      ],
      "min": [
        -1,
        -1,
        -1,
        -1
      ],
      "type": "VEC4"
    },
    {
      "bufferView": 1,
      "byteOffset": 21712,
      "componentType": 5126,
      "count": 2611,
      "max": [
        1.0277777910232544,
        1.4352825880050659
      ],
      "min": [
        -0.014920281246304512,
        -0.031334668397903442
      ],
      "type": "VEC2"
    },
    {
      "bufferView": 0,
      "byteOffset": 21312,
      "componentType": 5125,
      "count": 5574,
      "max": [
        2610
      ],
      "min": [
        0
      ],
      "type": "SCALAR"
    },
    {
      "bufferView": 2,
      "byteOffset": 127800,
      "componentType": 5126,
      "count": 320,
      "max": [
        62.88165283203125,
        5.5715656280517578,
        163.45877075195312
      ],
      "min": [
        50.662151336669922,
        -6.0498776435852051,
        101.77161407470703
      ],
      "type": "VEC3"
    },
    {
      "bufferView": 2,
      "byteOffset": 131640,
      "componentType": 5126,
      "count": 320,
      "max": [
        1,
        0.9562717080116272,
        0.90947020053863525
      ],
      "min": [
        -1,
        -0.9562714695930481,
        -0.90946978330612183
      ],
      "type": "VEC3"
    },
    {
      "bufferView": 3,
      "byteOffset": 85200,
      "componentType": 5126,
      "count": 320,
      "max": [
        0.15368166565895081,
        1,
        0.99551492929458618,
        1
      ],
      "min": [
        -0.1536833792924881,
        -1,
        -0.99997919797897339,
        1
      ],
      "type": "VEC4"
    },
    {
      "bufferView": 1,
      "byteOffset": 42600,
      "componentType": 5126,
      "count": 320,
      "max": [
        1.0000001192092896,
        1
      ],
      "min": [
        0,
        0
      ],
      "type": "VEC2"
    },
    {
      "bufferView": 0,
      "byteOffset": 43608,
      "componentType": 5125,
      "count": 1200,
      "max": [
        319
      ],
      "min": [
        0
      ],
      "type": "SCALAR"
    },
    {
      "bufferView": 2,
      "byteOffset": 135480,
      "componentType": 5126,
      "count": 73,
      "max": [
        22.897775650024414,
        22.550205230712891,
        124.24952697753906
      ],
      "min": [
        -22.898067474365234,
        -22.549871444702148,
        -1000.5093994140625
      ],
      "type": "VEC3"
    },
    {
      "bufferView": 2,
      "byteOffset": 136356,
      "componentType": 5126,
      "count": 73,
      "max": [
        1,
        0.98480290174484253,
        1.8212821828456072e-07
      ],
      "min": [
        -1,
        -0.98481285572052002,
        -1
      ],
      "type": "VEC3"
    },
    {
      "bufferView": 3,
      "byteOffset": 90320,
      "componentType": 5126,
      "count": 73,
      "max": [
        0.20130816102027893,
        0,
        0.99989145994186401,
        1
      ],
      "min": [
        -0.15928752720355988,
        -1,
        -0.99989145994186401,
        -1
      ],
      "type": "VEC4"
    },
    {
      "bufferView": 1,
      "byteOffset": 45160,
      "componentType": 5126,
      "count": 73,
      "max": [
        0.99240392446517944,
        1
      ],
      "min": [
        0.0075960755348205566,
        0
      ],
      "type": "VEC2"
    },
    {
      "bufferView": 0,
      "byteOffset": 48408,
      "componentType": 5125,
      "count": 378,
      "max": [
        72
      ],
      "min": [
        0
      ],
      "type": "SCALAR"
    }
  ],
  "asset": {
    "extras": {
      "author": "Anthony Yanez (https://sketchfab.com/paulyanez)",
      "license": "CC-BY-4.0 (http://creativecommons.org/licenses/by/4.0/)",
      "source": "https://sketchfab.com/models/3f1e0aeb31b04ba1abacac107d8cadc6",
      "title": "Darth Vader's Lightsaber (Star Wars)"
    },
    "generator": "Sketchfab-3.54.8-rc1",
    "version": "2.0"
  },
  "bufferViews": [
    {
      "buffer": 0,
      "byteLength": 49920,
      "byteOffset": 0,
      "name": "floatBufferViews",
      "target": 34963
    },
    {
      "buffer": 0,
      "byteLength": 45744,
      "byteOffset": 49920,
      "byteStride": 8,
      "name": "floatBufferViews",
      "target": 34962
    },
    {
      "buffer": 0,
      "byteLength": 137232,
      "byteOffset": 95664,
      "byteStride": 12,
      "name": "floatBufferViews",
      "target": 34962
    },
    {
      "buffer": 0,
      "byteLength": 91488,
      "byteOffset": 232896,
      "byteStride": 16,
      "name": "floatBufferViews",
      "target": 34962
    }
  ],
  "buffers": [
    {
      "byteLength": 324384,
      "uri": "scene.bin"
    }
  ],
  "images": [
    {
      "uri": "textures/07_-_Default_baseColor.jpeg"
    },
    {
      "uri": "textures/02_-_Default_baseColor.jpeg"
    },
    {
      "uri": "textures/15_-_Default_baseColor.jpeg"
    },
    {
      "uri": "textures/13_-_Default_baseColor.jpeg"
    }
  ],
  "materials": [
    {
      "doubleSided": true,
      "emissiveFactor": [
        0,
        0,
        0
      ],
      "name": "02_-_Default",
      "pbrMetallicRoughness": {
        "baseColorFactor": [
          1,
          1,
          1,
          1
        ],
        "baseColorTexture": {
          "index": 1,
          "texCoord": 0
        },
        "metallicFactor": 0,
        "roughnessFactor": 0.12560605140000003
      }
    },
    {
      "doubleSided": true,
      "emissiveFactor": [
        0,
        0,
        0
      ],
      "name": "07_-_Default",
      "pbrMetallicRoughness": {
        "baseColorFactor": [
          1,
          1,
          1,
          1
        ],
        "baseColorTexture": {
          "index": 0,
          "texCoord": 0
        },
        "metallicFactor": 0.78954546380000001,
        "roughnessFactor": 0.89297135959999996
      }
    },
    {
      "doubleSided": true,
      "emissiveFactor": [
        0,
        0,
        0
      ],
      "name": "13_-_Default",
      "pbrMetallicRoughness": {
        "baseColorFactor": [
          1,
          1,
          1,
          1
        ],
        "baseColorTexture": {
          "index": 3,
          "texCoord": 0
        },
        "metallicFactor": 0.88651516080000003,
        "roughnessFactor": 0
      }
    },
    {
      "doubleSided": true,
      "emissiveFactor": [
        1,
        0,
        0
      ],
      "name": "15_-_Default",
      "pbrMetallicRoughness": {
        "baseColorFactor": [
          1,
          1,
          1,
          1
        ],
        "baseColorTexture": {
          "index": 2,
          "texCoord": 0
        },
        "metallicFactor": 0.59560606989999998,
        "roughnessFactor": 0.10742423320000005
      }
    }
  ],
  "meshes": [
    {
      "name": "Darth Vader Hilt_02 - Default_0",
      "primitives": [
        {
          "attributes": {
            "NORMAL": 1,
            "POSITION": 0,
            "TANGENT": 2,
            "TEXCOORD_0": 3
          },
          "indices": 4,
          "material": 0,
          "mode": 4
        }
      ]
    },
    {
      "name": "Darth Vader Hilt_07 - Default_0",
      "primitives": [
        {
          "attributes": {
            "NORMAL": 6,
            "POSITION": 5,
            "TANGENT": 7,
            "TEXCOORD_0": 8
          },
          "indices": 9,
          "material": 1,
          "mode": 4
        }
      ]
    },
    {
      "name": "Darth Vader Hilt_13 - Default_0",
      "primitives": [
        {
          "attributes": {
            "NORMAL": 11,
            "POSITION": 10,
            "TANGENT": 12,
            "TEXCOORD_0": 13
          },
          "indices": 14,
          "material": 2,
          "mode": 4
        }
      ]
    },
    {
      "name": "Darth Vader Blade_15 - Default_0",
      "primitives": [
        {
          "attributes": {
            "NORMAL": 16,
            "POSITION": 15,
            "TANGENT": 17,
            "TEXCOORD_0": 18
          },
          "indices": 19,
          "material": 3,
          "mode": 4
        }
      ]
    }
  ],
  "nodes": [
    {
      "children": [
        1
      ],
      "name": "RootNode (gltf orientation matrix)",
      "rotation": [
        -0.70710678118654746,
        -0,
        -0,
        0.70710678118654757
      ]
    },
    {
      "children": [
        2
      ],
      "name": "RootNode (model correction matrix)"
    },
    {
      "children": [
        3
      ],
      "matrix": [
        1,
        0,
        0,
        0,
        0,
        0,
        1,
        0,
        0,
        -1,
        0,
        0,
        0,
        0,
        0,
        1
      ],
      "name": "Darth Vader's Lightsaber.FBX"
    },
    {
      "children": [
        4
      ],
      "name": "RootNode"
    },
    {
      "children": [
        5,
        6,
        7,
        8
      ],
      "matrix": [
        1.6292068449885733e-07,
        -1.6653345369377348e-16,
        0.99999999999998668,
        0,
        -0.9999999999999829,
        -8.7422776795520463e-08,
        1.6292068438783502e-07,
        0,
        8.7422776851031614e-08,
        -0.99999999999999611,
        -1.4432899320127035e-14,
        0,
        -0.618927001953125,
        218.01608276367188,
        5.507110595703125,
        1
      ],
      "name": "Darth Vader Hilt"
    },
    {
      "mesh": 0,
      "name": "Darth Vader Hilt_02 - Default_0"
    },
    {
      "mesh": 1,
      "name": "Darth Vader Hilt_07 - Default_0"
    },
    {
      "mesh": 2,
      "name": "Darth Vader Hilt_13 - Default_0"
    },
    {
      "children": [
        9
      ],
      "matrix": [
        0.50891029834745583,
        -8.2912014913142353e-08,
        1.0384101346488796e-07,
        0,
        8.2911942502711576e-08,
        0.50891005992886074,
        1.6450771466251222e-07,
        0,
        -2.338940409491437e-07,
        -3.7054124381039305e-07,
        1.14628171920768,
        0,
        -1.811981201171875e-05,
        -0.24566647410392761,
        -86.360565185546875,
        1
      ],
      "name": "Darth Vader Blade"
    },
    {
      "mesh": 3,
      "name": "Darth Vader Blade_15 - Default_0"
    }
  ],
  "samplers": [
    {
      "magFilter": 9729,
      "minFilter": 9987,
      "wrapS": 10497,
      "wrapT": 10497
    }
  ],
  "scene": 0,
  "scenes": [
    {
      "name": "OSG_Scene",
      "nodes": [
        0
      ]
    }
  ],
  "textures": [
    {
      "sampler": 0,
      "source": 0
    },
    {
      "sampler": 0,
      "source": 1
    },
    {
      "sampler": 0,
      "source": 2
    },
    {
      "sampler": 0,
      "source": 3
    }
  ]
}

