{
  "accessors": [
    {
      "bufferView": 2,
      "componentType": 5126,
      "count": 4132,
      "max": [
        13.798334121704102,
        14.190655708312988,
        168.86312866210938
      ],
      "min": [
        -13.798334121704102,
        -13.69268798828125,
        139.77520751953125
      ],
      "type": "VEC3"
    },
    {
      "bufferView": 2,
      "byteOffset": 49584,
      "componentType": 5126,
      "count": 4132,
      "max": [
        0.99997800588607788,
        0.99927961826324463,
        0.99978625774383545
      ],
      "min": [
        -0.99997800588607788,
        -0.99992048740386963,
        -0.99998801946640015
      ],
      "type": "VEC3"
    },
    {
      "bufferView": 3,
      "componentType": 5126,
      "count": 4132,
      "max": [
        1,
        0.99959802627563477,
        0.99951750040054321,
        1
      ],
      "min": [
        -1,
        -0.99952977895736694,
        -0.99816042184829712,
        1
      ],
      "type": "VEC4"
    },
    {
      "bufferView": 1,
      "componentType": 5126,
      "count": 4132,
      "max": [
        0.99462902545928955,
        0.99388498067855835
      ],
      "min": [
        3.0999999580672011e-05,
        0
      ],
      "type": "VEC2"
    },
    {
      "bufferView": 0,
      "componentType": 5125,
      "count": 22434,
      "max": [
        4131
      ],
      "min": [
        0
      ],
      "type": "SCALAR"
    },
    {
      "bufferView": 2,
      "byteOffset": 99168,
      "componentType": 5126,
      "count": 14946,
      "max": [
        60.356834411621094,
        20.471040725708008,
        151.05523681640625
      ],
      "min": [
        -60.356834411621094,
        -16.69249153137207,
        0.029968999326229095
      ],
      "type": "VEC3"
    },
    {
      "bufferView": 2,
      "byteOffset": 278520,
      "componentType": 5126,
      "count": 14946,
      "max": [
        1,
        0.9999808669090271,
        0.99999988079071045
      ],
      "min": [
        -1,
        -1,
        -0.99999552965164185
      ],
      "type": "VEC3"
    },
    {
      "bufferView": 3,
      "byteOffset": 66112,
      "componentType": 5126,
      "count": 14946,
      "max": [
        1,
        0.99998515844345093,
        0.99998897314071655,
        1
      ],
      "min": [
        -1,
        -0.9998285174369812,
        -0.9999929666519165,
        -1
      ],
      "type": "VEC4"
    },
    {
      "bufferView": 1,
      "byteOffset": 33056,
      "componentType": 5126,
      "count": 14946,
      "max": [
        0.99853497743606567,
        0.9952319860458374
      ],
      "min": [
        0.00098699994850903749,
        0.0014649999793618917
      ],
      "type": "VEC2"
    },
    {
      "bufferView": 0,
      "byteOffset": 89736,
      "componentType": 5125,
      "count": 76107,
      "max": [
        14945
      ],
      "min": [
        0
      ],
      "type": "SCALAR"
    }
  ],
  "asset": {
    "extras": {
      "author": "Yung Samzy (https://sketchfab.com/SSLeaker)",
      "license": "CC-BY-4.0 (http://creativecommons.org/licenses/by/4.0/)",
      "source": "https://sketchfab.com/3d-models/fortnite-x-star-wars-encrypted-skin-1a281d7f0fa94ceda83fcac3c40f7438",
      "title": "Fortnite X Star Wars (Encrypted Skin)"
    },
    "generator": "Sketchfab-6.87.0",
    "version": "2.0"
  },
  "bufferViews": [
    {
      "buffer": 0,
      "byteLength": 394164,
      "byteOffset": 0,
      "name": "floatBufferViews",
      "target": 34963
    },
    {
      "buffer": 0,
      "byteLength": 152624,
      "byteOffset": 394164,
      "byteStride": 8,
      "name": "floatBufferViews",
      "target": 34962
    },
    {
      "buffer": 0,
      "byteLength": 457872,
      "byteOffset": 546788,
      "byteStride": 12,
      "name": "floatBufferViews",
      "target": 34962
    },
    {
      "buffer": 0,
      "byteLength": 305248,
      "byteOffset": 1004660,
      "byteStride": 16,
      "name": "floatBufferViews",
      "target": 34962
    }
  ],
  "buffers": [
    {
      "byteLength": 1309908,
      "uri": "scene.bin"
    }
  ],
  "images": [
    {
      "uri": "textures/M_MEDColumbus_FaceAccessory_baseColor.png"
    },
    {
      "uri": "textures/M_MED_Commando_Body_Columbus_baseColor.png"
    }
  ],
  "materials": [
    {
      "doubleSided": true,
      "name": "M_MEDColumbus_FaceAccessory",
      "pbrMetallicRoughness": {
        "baseColorFactor": [
          1,
          1,
          1,
          1
        ],
        "baseColorTexture": {
          "index": 0,
          "texCoord": 0
        },
        "metallicFactor": 0,
        "roughnessFactor": 0.59999999999999998
      }
    },
    {
      "doubleSided": true,
      "name": "M_MED_Commando_Body_Columbus",
      "pbrMetallicRoughness": {
        "baseColorFactor": [
          1,
          1,
          1,
          1
        ],
        "baseColorTexture": {
          "index": 1,
          "texCoord": 0
        },
        "metallicFactor": 0,
        "roughnessFactor": 0.59999999999999998
      }
    }
  ],
  "meshes": [
    {
      "primitives": [
        {
          "attributes": {
            "NORMAL": 1,
            "POSITION": 0,
            "TANGENT": 2,
            "TEXCOORD_0": 3
          },
          "indices": 4,
          "material": 0,
          "mode": 4
        }
      ]
    },
    {
      "primitives": [
        {
          "attributes": {
            "NORMAL": 6,
            "POSITION": 5,
            "TANGENT": 7,
            "TEXCOORD_0": 8
          },
          "indices": 9,
          "material": 1,
          "mode": 4
        }
      ]
    }
  ],
  "nodes": [
    {
      "children": [
        1
      ],
      "name": "RootNode (gltf orientation matrix)",
      "rotation": [
        -0.70710678118654746,
        -0,
        -0,
        0.70710678118654757
      ]
    },
    {
      "children": [
        2
      ],
      "name": "RootNode (model correction matrix)"
    },
    {
      "children": [
        3,
        4
      ],
      "name": "Fortnite X Star Wars.obj.cleaner.materialmerger.gles"
    },
    {
      "mesh": 0,
      "name": ""
    },
    {
      "mesh": 1,
      "name": ""
    }
  ],
  "samplers": [
    {
      "magFilter": 9729,
      "minFilter": 9987,
      "wrapS": 10497,
      "wrapT": 10497
    }
  ],
  "scene": 0,
  "scenes": [
    {
      "name": "OSG_Scene",
      "nodes": [
        0
      ]
    }
  ],
  "textures": [
    {
      "sampler": 0,
      "source": 0
    },
    {
      "sampler": 0,
      "source": 1
    }
  ]
}

